<?xml version="1.0" encoding="UTF-8"?>
<svg xmlns="http://www.w3.org/2000/svg" id="Capa_1" data-name="Capa 1" width="267.82" height="117.8" viewBox="0 0 267.82 117.8">
  <defs>
    <style>.cls-1{fill:#05243f;}.cls-2{fill:#276cf0;}</style>
  </defs>
  <path class="cls-1" d="M9.54,44.38C7.83,40.18,6.81,36.53,2.71,36L.44,35.63c-.68-.92-.57-2.51.34-2.85,2.85.22,6.82.34,10.69.34,3.07,0,5.35-.12,9.21-.34a2,2,0,0,1,.11,2.85l-1.36.22c-3.52.57-3.64,1.14-2.5,4.55,2.62,7.85,5.92,15.81,8.53,21.73a18.09,18.09,0,0,0,1.82,3.63c.46-.33,1.25-1.93,2.16-4.32,1.48-3.86,5.35-13.76,6.48-16.72,1.59-4,2-6.37,2-7,0-1-.68-1.48-2-1.71l-2.61-.33a2.1,2.1,0,0,1,.22-2.85c3.54.22,6.38.34,8.53.34,2.85,0,4.78-.12,8-.34a2.12,2.12,0,0,1,.23,2.85l-1.71.22c-4,.57-5,3.53-8.31,9.9C38.66,48.82,31.6,65.31,29.79,70c-1.15,2.85-2.28,5.46-3.76,9.33a1.34,1.34,0,0,1-1.14.46,2.13,2.13,0,0,1-1.47-.46c-.92-3.18-2.63-7.62-4.33-11.82Z"></path>
  <path class="cls-1" d="M57.21,48.82c-3,0-3.07.22-3.07,3.07,0,11.49,6.71,21.27,18.88,21.27,3.75,0,6.94-1.14,10.46-5.57a1.5,1.5,0,0,1,2,1.36c-3.75,7.73-11.94,10.57-17.86,10.57-7.39,0-13.18-3.18-16.48-7.5a24.09,24.09,0,0,1-4.78-14.79c0-14,9.21-25.7,22.86-25.7,9.78,0,16.14,6.71,16.14,13.54A7,7,0,0,1,85,48c-.34.68-1.93.8-6.7.8Zm7.05-3.42c8.42,0,10.93-.45,11.84-1.13.33-.23.67-.68.67-2.16,0-3.19-2.15-7.17-8.75-7.17s-12.51,6.14-12.63,9.9c0,.23,0,.56.8.56Z"></path>
  <path class="cls-1" d="M95.22,45.29c0-4.43,0-5-3.07-7l-1-.68a1.55,1.55,0,0,1,.11-2.05,88.31,88.31,0,0,0,11.48-5.57c.57.11.92.34.92.79v6.61c0,.55.11.9.34,1,4-3.29,8.3-6.82,12.51-6.82,2.84,0,5.11,1.82,5.11,4.55a5,5,0,0,1-4.88,5.23,4.36,4.36,0,0,1-2.51-.8,9.35,9.35,0,0,0-5-1.81,5.06,5.06,0,0,0-4.1,2.27c-1.13,1.59-1.47,4.88-1.47,8.76V65.2c0,8.18.22,9.55,4.55,9.89l4.09.34a2,2,0,0,1-.22,2.84c-5.35-.22-8.64-.33-12.62-.33s-7.52.11-10.48.33a2,2,0,0,1-.23-2.84l2.18-.34c4.2-.68,4.31-1.71,4.31-9.89Z"></path>
  <path class="cls-1" d="M130.4,45.29c0-4.43,0-5-3.07-7l-1-.68a1.55,1.55,0,0,1,.11-2.05,79.24,79.24,0,0,0,11.72-5.57,1,1,0,0,1,1.13.68c-.23,4-.46,9.44-.46,14.1V65.2c0,8.18.23,9.32,4.33,9.89l2.38.34a2,2,0,0,1-.21,2.84c-3.42-.22-6.72-.33-10.7-.33s-7.51.11-10.7.33c-.79-.33-1-2.27-.22-2.84l2.39-.34c4.2-.57,4.32-1.71,4.32-9.89Zm9.33-25.61c0,4-2.84,5.8-5.92,5.8A5.5,5.5,0,0,1,128,19.9a5.89,5.89,0,0,1,6.14-6,5.5,5.5,0,0,1,5.58,5.81"></path>
  <path class="cls-1" d="M176.82,33.58a26.4,26.4,0,0,1,1.82,9.21,2,2,0,0,1-2.74.34c-1.92-5-5.33-8.3-10-8.3-4.43,0-7.28,2.84-7.28,6.94,0,4.66,4.78,7.17,8.76,9.44,6,3.4,11.59,7.27,11.59,15.36,0,8.63-7.95,13-16.37,13-5.35,0-9.32-1.13-12.17-3.4-.91-2.17-1.59-7.74-1.36-11.49a1.94,1.94,0,0,1,2.62-.12c1.92,6.26,5.56,11.72,12,11.72,4.11,0,7.63-2.38,7.63-7.28,0-5.23-4.55-8.07-8.76-10.47-6.59-3.75-11.26-7.73-11.26-14,0-8.3,6.83-13,15.47-13,4.77,0,9,1.14,10,2"></path>
  <path class="cls-2" d="M261.78,22.5H240.22V56.87a9.89,9.89,0,0,1-19.77,0V22.5H198.89c-5.58,0-7.67,3.84-4.65,8.53l30.6,47.59c3,4.7,8,4.7,11,0L266.44,31c3-4.69.92-8.53-4.66-8.53"></path>
  <path class="cls-1" d="M230.34,19.77a9.89,9.89,0,1,0-9.89-9.89,9.87,9.87,0,0,0,9.89,9.89"></path>
  <path class="cls-1" d="M14.21,99.53v18H12.46v-8.43H1.78v8.43H0v-18H1.78v8H12.46v-8Z"></path>
  <path class="cls-1" d="M16.8,113.77a3.26,3.26,0,0,1,.71-2.13,4.56,4.56,0,0,1,2-1.39,7.92,7.92,0,0,1,2.91-.49,14,14,0,0,1,2,.15,8.34,8.34,0,0,1,1.85.46v-1.12a3.58,3.58,0,0,0-1-2.65,3.73,3.73,0,0,0-2.74-1,5.86,5.86,0,0,0-2.09.39,10.83,10.83,0,0,0-2.14,1.16L17.61,106a11.46,11.46,0,0,1,2.53-1.33,7.43,7.43,0,0,1,2.54-.45,5.31,5.31,0,0,1,3.86,1.39A5.1,5.1,0,0,1,28,109.39v6.08a.75.75,0,0,0,.15.52.71.71,0,0,0,.48.19v1.37l-.48,0a1.46,1.46,0,0,1-.3,0,1.31,1.31,0,0,1-1-.41,1.28,1.28,0,0,1-.35-.81l0-1a5.77,5.77,0,0,1-2.31,1.77,7.19,7.19,0,0,1-2.89.62,4.88,4.88,0,0,1-2.3-.54,4.08,4.08,0,0,1-1.59-1.46A3.8,3.8,0,0,1,16.8,113.77Zm8.85,1a3.06,3.06,0,0,0,.43-.68,1.42,1.42,0,0,0,.15-.58V111.6a11.71,11.71,0,0,0-1.78-.5,9.79,9.79,0,0,0-1.87-.18,5.54,5.54,0,0,0-3,.73,2.27,2.27,0,0,0-1.15,2,2.59,2.59,0,0,0,.39,1.37,2.91,2.91,0,0,0,1.11,1.06,3.54,3.54,0,0,0,1.73.41A5.64,5.64,0,0,0,24,116,4.22,4.22,0,0,0,25.65,114.77Z"></path>
  <path class="cls-1" d="M36.92,117.8a6.45,6.45,0,0,1-2.66-.54,6.67,6.67,0,0,1-2.1-1.5,7.19,7.19,0,0,1-1-8.23,6.31,6.31,0,0,1,2.33-2.45,6.58,6.58,0,0,1,3.45-.91,6.3,6.3,0,0,1,3.27.85,5.31,5.31,0,0,1,2.11,2.3l-1.68.53A4,4,0,0,0,39,106.27a4.37,4.37,0,0,0-2.22-.57,4.41,4.41,0,0,0-2.41.68,4.93,4.93,0,0,0-1.73,1.86,5.87,5.87,0,0,0,0,5.39,5.26,5.26,0,0,0,1.75,1.93,4.29,4.29,0,0,0,2.41.72A4.49,4.49,0,0,0,38.5,116a4.53,4.53,0,0,0,1.4-.82,2.71,2.71,0,0,0,.8-1.13l1.7.51a4.34,4.34,0,0,1-1.18,1.68,6.08,6.08,0,0,1-1.93,1.17A6.64,6.64,0,0,1,36.92,117.8Z"></path>
  <path class="cls-1" d="M50.31,117.8a6.35,6.35,0,0,1-4.74-2,6.82,6.82,0,0,1-1.39-2.18,7.11,7.11,0,0,1-.49-2.66,6.8,6.8,0,0,1,.85-3.37,6.68,6.68,0,0,1,2.35-2.46,6.37,6.37,0,0,1,3.4-.92,6.21,6.21,0,0,1,3.41.94A6.65,6.65,0,0,1,56,107.56a6.82,6.82,0,0,1,.84,3.34v.39a1.85,1.85,0,0,1,0,.29H45.49a5.8,5.8,0,0,0,.8,2.52A5.11,5.11,0,0,0,48,115.84a4.49,4.49,0,0,0,2.35.64,4.87,4.87,0,0,0,2.45-.66,3.65,3.65,0,0,0,1.61-1.72l1.49.4a4.89,4.89,0,0,1-1.24,1.7,5.91,5.91,0,0,1-2,1.18A6.88,6.88,0,0,1,50.31,117.8Zm-4.87-7.46h9.77a5.42,5.42,0,0,0-.78-2.51,4.83,4.83,0,0,0-1.75-1.7,4.7,4.7,0,0,0-2.37-.61,4.64,4.64,0,0,0-2.36.61,4.91,4.91,0,0,0-1.74,1.71A5.56,5.56,0,0,0,45.44,110.34Z"></path>
  <path class="cls-1" d="M78.65,117.55H76.93v-7.34a6.14,6.14,0,0,0-.74-3.38A2.47,2.47,0,0,0,74,105.75a3.89,3.89,0,0,0-2.68,1.06,5.69,5.69,0,0,0-1.66,2.72v8H67.94v-7.34a6.2,6.2,0,0,0-.71-3.39,2.44,2.44,0,0,0-2.18-1.07,3.94,3.94,0,0,0-2.66,1,5.44,5.44,0,0,0-1.68,2.72v8H59V104.38h1.57v3A6.2,6.2,0,0,1,62.71,105a5.25,5.25,0,0,1,2.9-.84,3.77,3.77,0,0,1,2.66.94,4,4,0,0,1,1.25,2.45A7.06,7.06,0,0,1,71.71,105a5.13,5.13,0,0,1,2.91-.86,4.06,4.06,0,0,1,1.89.41,3.19,3.19,0,0,1,1.24,1.15,5.48,5.48,0,0,1,.69,1.79,11.86,11.86,0,0,1,.21,2.33Z"></path>
  <path class="cls-1" d="M87.43,117.8a6.38,6.38,0,0,1-2.63-.54,6.45,6.45,0,0,1-2.08-1.49,7,7,0,0,1-1.35-2.17,7.2,7.2,0,0,1,0-5.22,6.65,6.65,0,0,1,3.46-3.66,6.52,6.52,0,0,1,5.24,0,6.56,6.56,0,0,1,2.08,1.49,6.72,6.72,0,0,1,1.37,2.17,7.34,7.34,0,0,1,0,5.22,6.8,6.8,0,0,1-1.36,2.17,6.3,6.3,0,0,1-4.73,2ZM82.63,111a5.54,5.54,0,0,0,.65,2.66A5,5,0,0,0,85,115.58a4.47,4.47,0,0,0,4.82,0,5.16,5.16,0,0,0,1.75-1.92,5.55,5.55,0,0,0,.66-2.66,5.45,5.45,0,0,0-.66-2.67,5.16,5.16,0,0,0-1.75-1.92,4.35,4.35,0,0,0-2.41-.7,4.17,4.17,0,0,0-2.4.73,5.5,5.5,0,0,0-2.4,4.61Z"></path>
  <path class="cls-1" d="M100.72,117.8a8.46,8.46,0,0,1-3-.53,6.36,6.36,0,0,1-2.42-1.63l.72-1.21a7.58,7.58,0,0,0,2.24,1.5,6,6,0,0,0,2.4.47,4.6,4.6,0,0,0,2.51-.61,2,2,0,0,0,1-1.78,1.47,1.47,0,0,0-.47-1.19,3.43,3.43,0,0,0-1.34-.68c-.58-.18-1.28-.37-2.09-.57a15.49,15.49,0,0,1-2.3-.8,3.28,3.28,0,0,1-1.39-1.06,2.71,2.71,0,0,1-.47-1.67,3.44,3.44,0,0,1,.64-2.14,4,4,0,0,1,1.78-1.28,6.73,6.73,0,0,1,2.52-.45,7,7,0,0,1,2.69.49A5,5,0,0,1,105.6,106l-.84,1.17a4.58,4.58,0,0,0-1.69-1.21,5.78,5.78,0,0,0-2.17-.39,5.28,5.28,0,0,0-1.55.22,2.57,2.57,0,0,0-1.2.7,1.9,1.9,0,0,0-.47,1.35,1.57,1.57,0,0,0,.36,1.1,2.56,2.56,0,0,0,1.06.65c.47.18,1.06.37,1.75.57,1,.27,1.87.54,2.61.82a4.41,4.41,0,0,1,1.73,1.07,2.59,2.59,0,0,1,.61,1.84,3.39,3.39,0,0,1-1.4,2.88A6,6,0,0,1,100.72,117.8Z"></path>
  <path class="cls-1" d="M116.3,117.55v-10h-1.75V105h1.75v-.81a6.74,6.74,0,0,1,.55-2.85,4.23,4.23,0,0,1,1.55-1.87,4.14,4.14,0,0,1,2.34-.66,7.14,7.14,0,0,1,1.64.2,8.64,8.64,0,0,1,1.63.59l-.68,2.56a3.84,3.84,0,0,0-.89-.34,3.38,3.38,0,0,0-1-.14,1.53,1.53,0,0,0-1.32.61,2.87,2.87,0,0,0-.46,1.77V105H123v2.59H119.7v10Z"></path>
  <path class="cls-1" d="M123.46,113.66a3.64,3.64,0,0,1,.72-2.24,4.6,4.6,0,0,1,2-1.49,7.83,7.83,0,0,1,3-.53,11.09,11.09,0,0,1,1.7.13,5.86,5.86,0,0,1,1.49.4v-.7a2.45,2.45,0,0,0-.75-1.92,3.22,3.22,0,0,0-2.22-.67,5.64,5.64,0,0,0-2.08.38,10.37,10.37,0,0,0-2.08,1.11l-1.09-2.23a10.75,10.75,0,0,1,2.7-1.29,9.67,9.67,0,0,1,2.91-.44,6.45,6.45,0,0,1,4.43,1.41,5.06,5.06,0,0,1,1.58,4v4.17a1.22,1.22,0,0,0,.19.76.92.92,0,0,0,.62.27v2.77l-.82.12a3.82,3.82,0,0,1-.62,0,2.3,2.3,0,0,1-1.54-.45,2,2,0,0,1-.64-1.12l-.08-.68a5.87,5.87,0,0,1-2.16,1.72,6.07,6.07,0,0,1-2.64.61,5.11,5.11,0,0,1-2.37-.54,4.16,4.16,0,0,1-1.65-1.48A3.93,3.93,0,0,1,123.46,113.66Zm8.27.66a3,3,0,0,0,.45-.59,1.08,1.08,0,0,0,.18-.54v-1.32a7,7,0,0,0-1.32-.38,7.14,7.14,0,0,0-1.34-.13,3.91,3.91,0,0,0-2.17.55,1.7,1.7,0,0,0-.57,2.41,1.91,1.91,0,0,0,.81.72,2.77,2.77,0,0,0,1.27.27,4.15,4.15,0,0,0,1.5-.28A3.79,3.79,0,0,0,131.73,114.32Zm-.86-11.62-2.19-.66,1.37-3h3.17Z"></path>
  <path class="cls-1" d="M144.62,117.8a7.49,7.49,0,0,1-2.92-.54,6.35,6.35,0,0,1-2.21-1.51,7,7,0,0,1-1.05-8.17,6.47,6.47,0,0,1,2.42-2.48,7.2,7.2,0,0,1,3.73-.93,7.1,7.1,0,0,1,3.71.94,6,6,0,0,1,2.3,2.46l-3.32,1a3,3,0,0,0-1.14-1.13,3.23,3.23,0,0,0-1.57-.39,3.3,3.3,0,0,0-3,1.85,4.37,4.37,0,0,0-.46,2.06,4.27,4.27,0,0,0,.47,2,3.69,3.69,0,0,0,1.25,1.4,3.28,3.28,0,0,0,2.91.3,3.49,3.49,0,0,0,1-.55,2.23,2.23,0,0,0,.63-.82l3.32,1a5.23,5.23,0,0,1-1.33,1.77,6.43,6.43,0,0,1-2,1.24A7.63,7.63,0,0,1,144.62,117.8Z"></path>
  <path class="cls-1" d="M152.23,102.4V99h3.4v3.38Zm0,15.15v-13.3h3.4v13.3Z"></path>
  <path class="cls-1" d="M158.16,99h3.4v14.31a1.82,1.82,0,0,0,.31,1.23,1.07,1.07,0,0,0,.84.32,3.42,3.42,0,0,0,.83-.1,4.23,4.23,0,0,0,.76-.25l.46,2.58a6.68,6.68,0,0,1-1.6.51,8.63,8.63,0,0,1-1.65.18A3.38,3.38,0,0,1,159,117a3.26,3.26,0,0,1-.88-2.43Z"></path>
  <path class="cls-1" d="M177.5,117.8a7.49,7.49,0,0,1-2.92-.54,6.35,6.35,0,0,1-2.21-1.51,7,7,0,0,1-1.05-8.17,6.47,6.47,0,0,1,2.42-2.48,7.2,7.2,0,0,1,3.73-.93,7.1,7.1,0,0,1,3.71.94,6.06,6.06,0,0,1,2.31,2.46l-3.33,1a3,3,0,0,0-1.14-1.13,3.21,3.21,0,0,0-1.57-.39,3.3,3.3,0,0,0-3,1.85A4.37,4.37,0,0,0,174,111a4.27,4.27,0,0,0,.47,2,3.64,3.64,0,0,0,1.26,1.4,3.12,3.12,0,0,0,1.75.51,3.17,3.17,0,0,0,1.15-.21,3.49,3.49,0,0,0,1-.55,2.13,2.13,0,0,0,.63-.82l3.33,1a5.39,5.39,0,0,1-1.34,1.77,6.32,6.32,0,0,1-2,1.24A7.63,7.63,0,0,1,177.5,117.8Z"></path>
  <path class="cls-1" d="M185,112.62v-8.24h3.4v7.49a3.84,3.84,0,0,0,.56,2.27,1.91,1.91,0,0,0,1.65.77,3.6,3.6,0,0,0,1.31-.26,3.92,3.92,0,0,0,1.19-.79,4.32,4.32,0,0,0,.92-1.31v-8.17h3.4v9.37a1.21,1.21,0,0,0,.19.75.89.89,0,0,0,.63.28v2.77l-.85.11a4.84,4.84,0,0,1-.63,0,2.45,2.45,0,0,1-1.48-.42,1.58,1.58,0,0,1-.67-1.14l-.08-1a5.83,5.83,0,0,1-2.28,2,6.85,6.85,0,0,1-3.07.69,3.77,3.77,0,0,1-3.12-1.32A6,6,0,0,1,185,112.62Z"></path>
  <path class="cls-1" d="M200.28,102.4V99h3.4v3.38Zm0,15.15v-13.3h3.4v13.3Z"></path>
  <path class="cls-1" d="M205.43,111a7.67,7.67,0,0,1,.76-3.45,6.19,6.19,0,0,1,2.11-2.44,5.38,5.38,0,0,1,3.07-.91,5,5,0,0,1,2.65.73,5.23,5.23,0,0,1,1.84,1.84V99h3.4v14.72a1.23,1.23,0,0,0,.18.76.83.83,0,0,0,.6.28v2.77a8.29,8.29,0,0,1-1.44.17,2.44,2.44,0,0,1-1.51-.45,1.67,1.67,0,0,1-.67-1.2l0-.83a4.94,4.94,0,0,1-2,1.9,5.54,5.54,0,0,1-2.62.66,6.05,6.05,0,0,1-4.53-2,6.55,6.55,0,0,1-1.32-2.17A7.59,7.59,0,0,1,205.43,111Zm10.43,1.75v-3.11a3.47,3.47,0,0,0-.81-1.3,4.76,4.76,0,0,0-1.25-.91,3.1,3.1,0,0,0-1.37-.33,3.18,3.18,0,0,0-1.42.32,3.72,3.72,0,0,0-1.1.87,3.86,3.86,0,0,0-.71,1.27,4.79,4.79,0,0,0-.24,1.52,4.48,4.48,0,0,0,.26,1.51,3.58,3.58,0,0,0,.78,1.23,3.74,3.74,0,0,0,1.18.82,3.53,3.53,0,0,0,1.46.3,3.34,3.34,0,0,0,1-.16,4.07,4.07,0,0,0,.94-.45,3.51,3.51,0,0,0,.79-.7A3,3,0,0,0,215.86,112.72Z"></path>
  <path class="cls-1" d="M221.19,113.66a3.64,3.64,0,0,1,.72-2.24,4.6,4.6,0,0,1,2-1.49,7.83,7.83,0,0,1,3-.53,11.09,11.09,0,0,1,1.7.13,5.86,5.86,0,0,1,1.49.4v-.7a2.45,2.45,0,0,0-.75-1.92,3.22,3.22,0,0,0-2.22-.67A5.64,5.64,0,0,0,225,107a10.37,10.37,0,0,0-2.08,1.11l-1.09-2.23a10.75,10.75,0,0,1,2.7-1.29,9.67,9.67,0,0,1,2.91-.44,6.45,6.45,0,0,1,4.43,1.41,5.06,5.06,0,0,1,1.58,4v4.17a1.22,1.22,0,0,0,.19.76.92.92,0,0,0,.62.27v2.77l-.82.12a3.82,3.82,0,0,1-.62,0,2.3,2.3,0,0,1-1.54-.45,2,2,0,0,1-.64-1.12l-.08-.68a5.87,5.87,0,0,1-2.16,1.72,6.07,6.07,0,0,1-2.64.61,5.11,5.11,0,0,1-2.37-.54,4.16,4.16,0,0,1-1.65-1.48A3.93,3.93,0,0,1,221.19,113.66Zm8.27.66a3,3,0,0,0,.45-.59,1.08,1.08,0,0,0,.18-.54v-1.32a7,7,0,0,0-1.32-.38,7.14,7.14,0,0,0-1.34-.13,3.91,3.91,0,0,0-2.17.55,1.7,1.7,0,0,0-.57,2.41,1.91,1.91,0,0,0,.81.72,2.77,2.77,0,0,0,1.27.27,4.15,4.15,0,0,0,1.5-.28A3.79,3.79,0,0,0,229.46,114.32Z"></path>
  <path class="cls-1" d="M244.07,107.19a6.15,6.15,0,0,0-2.76.6,3.59,3.59,0,0,0-1.75,1.71v8h-3.4V104.38h3.12v2.71a5.91,5.91,0,0,1,1.8-2.15,4.28,4.28,0,0,1,2.31-.87h.43a.9.9,0,0,1,.25,0Z"></path>
  <path class="cls-1" d="M253.43,116.89l-1,.4a8.22,8.22,0,0,1-1.3.37,7.49,7.49,0,0,1-1.41.14,4.44,4.44,0,0,1-1.73-.33,2.7,2.7,0,0,1-1.25-1,3.3,3.3,0,0,1-.47-1.87V107h-1.75v-2.61h1.75v-4.32h3.4v4.32h2.79V107h-2.79v6.41a1.25,1.25,0,0,0,.38,1,1.33,1.33,0,0,0,.89.3,3.12,3.12,0,0,0,1-.18l.81-.3Z"></path>
  <path class="cls-1" d="M260.87,117.8a7.49,7.49,0,0,1-2.9-.54,6.51,6.51,0,0,1-2.2-1.48,6.77,6.77,0,0,1-1.91-4.73,7.16,7.16,0,0,1,.85-3.44,6.48,6.48,0,0,1,2.44-2.49,7.17,7.17,0,0,1,3.74-1,7,7,0,0,1,3.73,1,6.37,6.37,0,0,1,2.37,2.49,7,7,0,0,1,.83,3.32c0,.21,0,.41,0,.62s0,.38-.05.52H257.47a3.64,3.64,0,0,0,.59,1.73,3.28,3.28,0,0,0,1.27,1.13,3.64,3.64,0,0,0,1.66.38,3.92,3.92,0,0,0,1.92-.49,2.63,2.63,0,0,0,1.23-1.31l2.92.81a5.42,5.42,0,0,1-1.38,1.8,6.77,6.77,0,0,1-2.12,1.24A8,8,0,0,1,260.87,117.8Zm-3.48-7.89h6.95a3.66,3.66,0,0,0-.57-1.72,3.21,3.21,0,0,0-1.23-1.14,3.45,3.45,0,0,0-1.7-.41,3.35,3.35,0,0,0-2.88,1.55A3.9,3.9,0,0,0,257.39,109.91Z"></path>
</svg>
